<?xml version="1.0" encoding="utf-8"?>
<!-- Generator: Adobe Illustrator 27.8.0, SVG Export Plug-In . SVG Version: 6.00 Build 0)  -->
<svg version="1.1" id="Layer_1" xmlns="http://www.w3.org/2000/svg" xmlns:xlink="http://www.w3.org/1999/xlink" x="0px" y="0px"
	 viewBox="0 0 595.28 595.28" style="enable-background:new 0 0 595.28 595.28;" xml:space="preserve">
<style type="text/css">
	.st0{fill:#8B559D;}
</style>
<path class="st0" d="M408.36,282.27c-16.18-7.48-32.37-14.95-48.56-22.42c-59.08-27.27-118.17-54.55-177.27-81.77
	c-1.76-0.81-3.81-1.46-5.71-1.42c-4.45,0.12-7.09,2.84-8.4,6.96c0,1.28,0,2.57,0,3.85c4.59,6.42,9.07,12.93,13.8,19.25
	c20.5,27.43,41.06,54.81,61.65,82.17c0.01,0.02,0.03,0.04,0.04,0.06c1.13,1.5,1.1,2.4-0.01,3.88
	c-9.29,12.35-18.55,24.73-27.82,37.09c-14.99,19.98-29.99,39.95-44.96,59.94c-1.04,1.38-1.81,2.97-2.7,4.45c0,1.28,0,2.57,0,3.85
	c2.89,6.96,7.32,8.71,14.12,5.57c22.02-10.16,44.03-20.32,66.05-30.49c26.18-12.08,52.36-24.17,78.55-36.25
	c3.5-1.62,7-3.24,10.5-4.86c23.5-10.84,47.01-21.67,70.47-32.62c2.12-0.99,4.33-2.7,5.5-4.66
	C416.43,290.08,414.09,284.92,408.36,282.27z"/>
</svg>
